<?xml version="1.0" encoding="UTF-8" standalone="no"?>
<svg width="100%" height="100%" viewBox="0 0 300 56" version="1.1" xmlns="http://www.w3.org/2000/svg" xmlns:xlink="http://www.w3.org/1999/xlink" xml:space="preserve" style="fill-rule:evenodd;clip-rule:evenodd;stroke-linejoin:round;stroke-miterlimit:2;">
    <g id="Artboard1" transform="matrix(1.01177,0,0,0.931566,-18.0593,-6.67039)">
        <rect x="17.849" y="7.16" width="296.991" height="60.437" style="fill:none;"/>
        <g transform="matrix(0.0514949,0,0,0.0559286,45.7644,37.7505)">
            <g transform="matrix(1,0,0,1,-580,-580)">
                <g transform="matrix(1,0,0,1,80,80)">
                    <g transform="matrix(0.4,0,0,0.4,320,0)">
                        <g>
                            <rect x="0" y="0" width="100" height="100"/>
                        </g>
                    </g>
                    <g transform="matrix(0.4,0,0,0.4,560,0)">
                        <g>
                            <rect x="0" y="0" width="100" height="100"/>
                        </g>
                    </g>
                    <g transform="matrix(0.4,0,0,0.4,640,0)">
                        <g>
                            <rect x="0" y="0" width="100" height="100"/>
                        </g>
                    </g>
                    <g transform="matrix(0.4,0,0,0.4,520,40)">
                        <g>
                            <rect x="0" y="0" width="100" height="100"/>
                        </g>
                    </g>
                    <g transform="matrix(0.4,0,0,0.4,560,40)">
                        <g>
                            <rect x="0" y="0" width="100" height="100"/>
                        </g>
                    </g>
                    <g transform="matrix(0.4,0,0,0.4,640,40)">
                        <g>
                            <rect x="0" y="0" width="100" height="100"/>
                        </g>
                    </g>
                    <g transform="matrix(0.4,0,0,0.4,320,80)">
                        <g>
                            <rect x="0" y="0" width="100" height="100"/>
                        </g>
                    </g>
                    <g transform="matrix(0.4,0,0,0.4,360,80)">
                        <g>
                            <rect x="0" y="0" width="100" height="100"/>
                        </g>
                    </g>
                    <g transform="matrix(0.4,0,0,0.4,440,80)">
                        <g>
                            <rect x="0" y="0" width="100" height="100"/>
                        </g>
                    </g>
                    <g transform="matrix(0.4,0,0,0.4,480,80)">
                        <g>
                            <rect x="0" y="0" width="100" height="100"/>
                        </g>
                    </g>
                    <g transform="matrix(0.4,0,0,0.4,520,80)">
                        <g>
                            <rect x="0" y="0" width="100" height="100"/>
                        </g>
                    </g>
                    <g transform="matrix(0.4,0,0,0.4,560,80)">
                        <g>
                            <rect x="0" y="0" width="100" height="100"/>
                        </g>
                    </g>
                    <g transform="matrix(0.4,0,0,0.4,600,80)">
                        <g>
                            <rect x="0" y="0" width="100" height="100"/>
                        </g>
                    </g>
                    <g transform="matrix(0.4,0,0,0.4,360,120)">
                        <g>
                            <rect x="0" y="0" width="100" height="100"/>
                        </g>
                    </g>
                    <g transform="matrix(0.4,0,0,0.4,400,120)">
                        <g>
                            <rect x="0" y="0" width="100" height="100"/>
                        </g>
                    </g>
                    <g transform="matrix(0.4,0,0,0.4,520,120)">
                        <g>
                            <rect x="0" y="0" width="100" height="100"/>
                        </g>
                    </g>
                    <g transform="matrix(0.4,0,0,0.4,560,120)">
                        <g>
                            <rect x="0" y="0" width="100" height="100"/>
                        </g>
                    </g>
                    <g transform="matrix(0.4,0,0,0.4,360,160)">
                        <g>
                            <rect x="0" y="0" width="100" height="100"/>
                        </g>
                    </g>
                    <g transform="matrix(0.4,0,0,0.4,400,160)">
                        <g>
                            <rect x="0" y="0" width="100" height="100"/>
                        </g>
                    </g>
                    <g transform="matrix(0.4,0,0,0.4,520,160)">
                        <g>
                            <rect x="0" y="0" width="100" height="100"/>
                        </g>
                    </g>
                    <g transform="matrix(0.4,0,0,0.4,560,160)">
                        <g>
                            <rect x="0" y="0" width="100" height="100"/>
                        </g>
                    </g>
                    <g transform="matrix(0.4,0,0,0.4,320,200)">
                        <g>
                            <rect x="0" y="0" width="100" height="100"/>
                        </g>
                    </g>
                    <g transform="matrix(0.4,0,0,0.4,400,200)">
                        <g>
                            <rect x="0" y="0" width="100" height="100"/>
                        </g>
                    </g>
                    <g transform="matrix(0.4,0,0,0.4,520,200)">
                        <g>
                            <rect x="0" y="0" width="100" height="100"/>
                        </g>
                    </g>
                    <g transform="matrix(0.4,0,0,0.4,320,240)">
                        <g>
                            <rect x="0" y="0" width="100" height="100"/>
                        </g>
                    </g>
                    <g transform="matrix(0.4,0,0,0.4,400,240)">
                        <g>
                            <rect x="0" y="0" width="100" height="100"/>
                        </g>
                    </g>
                    <g transform="matrix(0.4,0,0,0.4,480,240)">
                        <g>
                            <rect x="0" y="0" width="100" height="100"/>
                        </g>
                    </g>
                    <g transform="matrix(0.4,0,0,0.4,560,240)">
                        <g>
                            <rect x="0" y="0" width="100" height="100"/>
                        </g>
                    </g>
                    <g transform="matrix(0.4,0,0,0.4,640,240)">
                        <g>
                            <rect x="0" y="0" width="100" height="100"/>
                        </g>
                    </g>
                    <g transform="matrix(0.4,0,0,0.4,360,280)">
                        <g>
                            <rect x="0" y="0" width="100" height="100"/>
                        </g>
                    </g>
                    <g transform="matrix(0.4,0,0,0.4,400,280)">
                        <g>
                            <rect x="0" y="0" width="100" height="100"/>
                        </g>
                    </g>
                    <g transform="matrix(0.4,0,0,0.4,480,280)">
                        <g>
                            <rect x="0" y="0" width="100" height="100"/>
                        </g>
                    </g>
                    <g transform="matrix(0.4,0,0,0.4,560,280)">
                        <g>
                            <rect x="0" y="0" width="100" height="100"/>
                        </g>
                    </g>
                    <g transform="matrix(0.4,0,0,0.4,640,280)">
                        <g>
                            <rect x="0" y="0" width="100" height="100"/>
                        </g>
                    </g>
                    <g transform="matrix(0.4,0,0,0.4,0,320)">
                        <g>
                            <rect x="0" y="0" width="100" height="100"/>
                        </g>
                    </g>
                    <g transform="matrix(0.4,0,0,0.4,80,320)">
                        <g>
                            <rect x="0" y="0" width="100" height="100"/>
                        </g>
                    </g>
                    <g transform="matrix(0.4,0,0,0.4,240,320)">
                        <g>
                            <rect x="0" y="0" width="100" height="100"/>
                        </g>
                    </g>
                    <g transform="matrix(0.4,0,0,0.4,280,320)">
                        <g>
                            <rect x="0" y="0" width="100" height="100"/>
                        </g>
                    </g>
                    <g transform="matrix(0.4,0,0,0.4,480,320)">
                        <g>
                            <rect x="0" y="0" width="100" height="100"/>
                        </g>
                    </g>
                    <g transform="matrix(0.4,0,0,0.4,600,320)">
                        <g>
                            <rect x="0" y="0" width="100" height="100"/>
                        </g>
                    </g>
                    <g transform="matrix(0.4,0,0,0.4,640,320)">
                        <g>
                            <rect x="0" y="0" width="100" height="100"/>
                        </g>
                    </g>
                    <g transform="matrix(0.4,0,0,0.4,760,320)">
                        <g>
                            <rect x="0" y="0" width="100" height="100"/>
                        </g>
                    </g>
                    <g transform="matrix(0.4,0,0,0.4,880,320)">
                        <g>
                            <rect x="0" y="0" width="100" height="100"/>
                        </g>
                    </g>
                    <g transform="matrix(0.4,0,0,0.4,960,320)">
                        <g>
                            <rect x="0" y="0" width="100" height="100"/>
                        </g>
                    </g>
                    <g transform="matrix(0.4,0,0,0.4,40,360)">
                        <g>
                            <rect x="0" y="0" width="100" height="100"/>
                        </g>
                    </g>
                    <g transform="matrix(0.4,0,0,0.4,80,360)">
                        <g>
                            <rect x="0" y="0" width="100" height="100"/>
                        </g>
                    </g>
                    <g transform="matrix(0.4,0,0,0.4,120,360)">
                        <g>
                            <rect x="0" y="0" width="100" height="100"/>
                        </g>
                    </g>
                    <g transform="matrix(0.4,0,0,0.4,280,360)">
                        <g>
                            <rect x="0" y="0" width="100" height="100"/>
                        </g>
                    </g>
                    <g transform="matrix(0.4,0,0,0.4,320,360)">
                        <g>
                            <rect x="0" y="0" width="100" height="100"/>
                        </g>
                    </g>
                    <g transform="matrix(0.4,0,0,0.4,360,360)">
                        <g>
                            <rect x="0" y="0" width="100" height="100"/>
                        </g>
                    </g>
                    <g transform="matrix(0.4,0,0,0.4,480,360)">
                        <g>
                            <rect x="0" y="0" width="100" height="100"/>
                        </g>
                    </g>
                    <g transform="matrix(0.4,0,0,0.4,520,360)">
                        <g>
                            <rect x="0" y="0" width="100" height="100"/>
                        </g>
                    </g>
                    <g transform="matrix(0.4,0,0,0.4,600,360)">
                        <g>
                            <rect x="0" y="0" width="100" height="100"/>
                        </g>
                    </g>
                    <g transform="matrix(0.4,0,0,0.4,640,360)">
                        <g>
                            <rect x="0" y="0" width="100" height="100"/>
                        </g>
                    </g>
                    <g transform="matrix(0.4,0,0,0.4,680,360)">
                        <g>
                            <rect x="0" y="0" width="100" height="100"/>
                        </g>
                    </g>
                    <g transform="matrix(0.4,0,0,0.4,720,360)">
                        <g>
                            <rect x="0" y="0" width="100" height="100"/>
                        </g>
                    </g>
                    <g transform="matrix(0.4,0,0,0.4,760,360)">
                        <g>
                            <rect x="0" y="0" width="100" height="100"/>
                        </g>
                    </g>
                    <g transform="matrix(0.4,0,0,0.4,840,360)">
                        <g>
                            <rect x="0" y="0" width="100" height="100"/>
                        </g>
                    </g>
                    <g transform="matrix(0.4,0,0,0.4,920,360)">
                        <g>
                            <rect x="0" y="0" width="100" height="100"/>
                        </g>
                    </g>
                    <g transform="matrix(0.4,0,0,0.4,960,360)">
                        <g>
                            <rect x="0" y="0" width="100" height="100"/>
                        </g>
                    </g>
                    <g transform="matrix(0.4,0,0,0.4,40,400)">
                        <g>
                            <rect x="0" y="0" width="100" height="100"/>
                        </g>
                    </g>
                    <g transform="matrix(0.4,0,0,0.4,200,400)">
                        <g>
                            <rect x="0" y="0" width="100" height="100"/>
                        </g>
                    </g>
                    <g transform="matrix(0.4,0,0,0.4,240,400)">
                        <g>
                            <rect x="0" y="0" width="100" height="100"/>
                        </g>
                    </g>
                    <g transform="matrix(0.4,0,0,0.4,320,400)">
                        <g>
                            <rect x="0" y="0" width="100" height="100"/>
                        </g>
                    </g>
                    <g transform="matrix(0.4,0,0,0.4,360,400)">
                        <g>
                            <rect x="0" y="0" width="100" height="100"/>
                        </g>
                    </g>
                    <g transform="matrix(0.4,0,0,0.4,400,400)">
                        <g>
                            <rect x="0" y="0" width="100" height="100"/>
                        </g>
                    </g>
                    <g transform="matrix(0.4,0,0,0.4,440,400)">
                        <g>
                            <rect x="0" y="0" width="100" height="100"/>
                        </g>
                    </g>
                    <g transform="matrix(0.4,0,0,0.4,480,400)">
                        <g>
                            <rect x="0" y="0" width="100" height="100"/>
                        </g>
                    </g>
                    <g transform="matrix(0.4,0,0,0.4,600,400)">
                        <g>
                            <rect x="0" y="0" width="100" height="100"/>
                        </g>
                    </g>
                    <g transform="matrix(0.4,0,0,0.4,680,400)">
                        <g>
                            <rect x="0" y="0" width="100" height="100"/>
                        </g>
                    </g>
                    <g transform="matrix(0.4,0,0,0.4,720,400)">
                        <g>
                            <rect x="0" y="0" width="100" height="100"/>
                        </g>
                    </g>
                    <g transform="matrix(0.4,0,0,0.4,760,400)">
                        <g>
                            <rect x="0" y="0" width="100" height="100"/>
                        </g>
                    </g>
                    <g transform="matrix(0.4,0,0,0.4,800,400)">
                        <g>
                            <rect x="0" y="0" width="100" height="100"/>
                        </g>
                    </g>
                    <g transform="matrix(0.4,0,0,0.4,840,400)">
                        <g>
                            <rect x="0" y="0" width="100" height="100"/>
                        </g>
                    </g>
                    <g transform="matrix(0.4,0,0,0.4,880,400)">
                        <g>
                            <rect x="0" y="0" width="100" height="100"/>
                        </g>
                    </g>
                    <g transform="matrix(0.4,0,0,0.4,960,400)">
                        <g>
                            <rect x="0" y="0" width="100" height="100"/>
                        </g>
                    </g>
                    <g transform="matrix(0.4,0,0,0.4,40,440)">
                        <g>
                            <rect x="0" y="0" width="100" height="100"/>
                        </g>
                    </g>
                    <g transform="matrix(0.4,0,0,0.4,120,440)">
                        <g>
                            <rect x="0" y="0" width="100" height="100"/>
                        </g>
                    </g>
                    <g transform="matrix(0.4,0,0,0.4,160,440)">
                        <g>
                            <rect x="0" y="0" width="100" height="100"/>
                        </g>
                    </g>
                    <g transform="matrix(0.4,0,0,0.4,320,440)">
                        <g>
                            <rect x="0" y="0" width="100" height="100"/>
                        </g>
                    </g>
                    <g transform="matrix(0.4,0,0,0.4,360,440)">
                        <g>
                            <rect x="0" y="0" width="100" height="100"/>
                        </g>
                    </g>
                    <g transform="matrix(0.4,0,0,0.4,400,440)">
                        <g>
                            <rect x="0" y="0" width="100" height="100"/>
                        </g>
                    </g>
                    <g transform="matrix(0.4,0,0,0.4,480,440)">
                        <g>
                            <rect x="0" y="0" width="100" height="100"/>
                        </g>
                    </g>
                    <g transform="matrix(0.4,0,0,0.4,560,440)">
                        <g>
                            <rect x="0" y="0" width="100" height="100"/>
                        </g>
                    </g>
                    <g transform="matrix(0.4,0,0,0.4,600,440)">
                        <g>
                            <rect x="0" y="0" width="100" height="100"/>
                        </g>
                    </g>
                    <g transform="matrix(0.4,0,0,0.4,640,440)">
                        <g>
                            <rect x="0" y="0" width="100" height="100"/>
                        </g>
                    </g>
                    <g transform="matrix(0.4,0,0,0.4,720,440)">
                        <g>
                            <rect x="0" y="0" width="100" height="100"/>
                        </g>
                    </g>
                    <g transform="matrix(0.4,0,0,0.4,760,440)">
                        <g>
                            <rect x="0" y="0" width="100" height="100"/>
                        </g>
                    </g>
                    <g transform="matrix(0.4,0,0,0.4,840,440)">
                        <g>
                            <rect x="0" y="0" width="100" height="100"/>
                        </g>
                    </g>
                    <g transform="matrix(0.4,0,0,0.4,40,480)">
                        <g>
                            <rect x="0" y="0" width="100" height="100"/>
                        </g>
                    </g>
                    <g transform="matrix(0.4,0,0,0.4,80,480)">
                        <g>
                            <rect x="0" y="0" width="100" height="100"/>
                        </g>
                    </g>
                    <g transform="matrix(0.4,0,0,0.4,120,480)">
                        <g>
                            <rect x="0" y="0" width="100" height="100"/>
                        </g>
                    </g>
                    <g transform="matrix(0.4,0,0,0.4,160,480)">
                        <g>
                            <rect x="0" y="0" width="100" height="100"/>
                        </g>
                    </g>
                    <g transform="matrix(0.4,0,0,0.4,200,480)">
                        <g>
                            <rect x="0" y="0" width="100" height="100"/>
                        </g>
                    </g>
                    <g transform="matrix(0.4,0,0,0.4,240,480)">
                        <g>
                            <rect x="0" y="0" width="100" height="100"/>
                        </g>
                    </g>
                    <g transform="matrix(0.4,0,0,0.4,280,480)">
                        <g>
                            <rect x="0" y="0" width="100" height="100"/>
                        </g>
                    </g>
                    <g transform="matrix(0.4,0,0,0.4,320,480)">
                        <g>
                            <rect x="0" y="0" width="100" height="100"/>
                        </g>
                    </g>
                    <g transform="matrix(0.4,0,0,0.4,360,480)">
                        <g>
                            <rect x="0" y="0" width="100" height="100"/>
                        </g>
                    </g>
                    <g transform="matrix(0.4,0,0,0.4,440,480)">
                        <g>
                            <rect x="0" y="0" width="100" height="100"/>
                        </g>
                    </g>
                    <g transform="matrix(0.4,0,0,0.4,480,480)">
                        <g>
                            <rect x="0" y="0" width="100" height="100"/>
                        </g>
                    </g>
                    <g transform="matrix(0.4,0,0,0.4,640,480)">
                        <g>
                            <rect x="0" y="0" width="100" height="100"/>
                        </g>
                    </g>
                    <g transform="matrix(0.4,0,0,0.4,720,480)">
                        <g>
                            <rect x="0" y="0" width="100" height="100"/>
                        </g>
                    </g>
                    <g transform="matrix(0.4,0,0,0.4,960,480)">
                        <g>
                            <rect x="0" y="0" width="100" height="100"/>
                        </g>
                    </g>
                    <g transform="matrix(0.4,0,0,0.4,40,520)">
                        <g>
                            <rect x="0" y="0" width="100" height="100"/>
                        </g>
                    </g>
                    <g transform="matrix(0.4,0,0,0.4,80,520)">
                        <g>
                            <rect x="0" y="0" width="100" height="100"/>
                        </g>
                    </g>
                    <g transform="matrix(0.4,0,0,0.4,160,520)">
                        <g>
                            <rect x="0" y="0" width="100" height="100"/>
                        </g>
                    </g>
                    <g transform="matrix(0.4,0,0,0.4,200,520)">
                        <g>
                            <rect x="0" y="0" width="100" height="100"/>
                        </g>
                    </g>
                    <g transform="matrix(0.4,0,0,0.4,280,520)">
                        <g>
                            <rect x="0" y="0" width="100" height="100"/>
                        </g>
                    </g>
                    <g transform="matrix(0.4,0,0,0.4,320,520)">
                        <g>
                            <rect x="0" y="0" width="100" height="100"/>
                        </g>
                    </g>
                    <g transform="matrix(0.4,0,0,0.4,360,520)">
                        <g>
                            <rect x="0" y="0" width="100" height="100"/>
                        </g>
                    </g>
                    <g transform="matrix(0.4,0,0,0.4,400,520)">
                        <g>
                            <rect x="0" y="0" width="100" height="100"/>
                        </g>
                    </g>
                    <g transform="matrix(0.4,0,0,0.4,480,520)">
                        <g>
                            <rect x="0" y="0" width="100" height="100"/>
                        </g>
                    </g>
                    <g transform="matrix(0.4,0,0,0.4,520,520)">
                        <g>
                            <rect x="0" y="0" width="100" height="100"/>
                        </g>
                    </g>
                    <g transform="matrix(0.4,0,0,0.4,600,520)">
                        <g>
                            <rect x="0" y="0" width="100" height="100"/>
                        </g>
                    </g>
                    <g transform="matrix(0.4,0,0,0.4,640,520)">
                        <g>
                            <rect x="0" y="0" width="100" height="100"/>
                        </g>
                    </g>
                    <g transform="matrix(0.4,0,0,0.4,720,520)">
                        <g>
                            <rect x="0" y="0" width="100" height="100"/>
                        </g>
                    </g>
                    <g transform="matrix(0.4,0,0,0.4,760,520)">
                        <g>
                            <rect x="0" y="0" width="100" height="100"/>
                        </g>
                    </g>
                    <g transform="matrix(0.4,0,0,0.4,920,520)">
                        <g>
                            <rect x="0" y="0" width="100" height="100"/>
                        </g>
                    </g>
                    <g transform="matrix(0.4,0,0,0.4,960,520)">
                        <g>
                            <rect x="0" y="0" width="100" height="100"/>
                        </g>
                    </g>
                    <g transform="matrix(0.4,0,0,0.4,0,560)">
                        <g>
                            <rect x="0" y="0" width="100" height="100"/>
                        </g>
                    </g>
                    <g transform="matrix(0.4,0,0,0.4,40,560)">
                        <g>
                            <rect x="0" y="0" width="100" height="100"/>
                        </g>
                    </g>
                    <g transform="matrix(0.4,0,0,0.4,240,560)">
                        <g>
                            <rect x="0" y="0" width="100" height="100"/>
                        </g>
                    </g>
                    <g transform="matrix(0.4,0,0,0.4,280,560)">
                        <g>
                            <rect x="0" y="0" width="100" height="100"/>
                        </g>
                    </g>
                    <g transform="matrix(0.4,0,0,0.4,320,560)">
                        <g>
                            <rect x="0" y="0" width="100" height="100"/>
                        </g>
                    </g>
                    <g transform="matrix(0.4,0,0,0.4,400,560)">
                        <g>
                            <rect x="0" y="0" width="100" height="100"/>
                        </g>
                    </g>
                    <g transform="matrix(0.4,0,0,0.4,480,560)">
                        <g>
                            <rect x="0" y="0" width="100" height="100"/>
                        </g>
                    </g>
                    <g transform="matrix(0.4,0,0,0.4,520,560)">
                        <g>
                            <rect x="0" y="0" width="100" height="100"/>
                        </g>
                    </g>
                    <g transform="matrix(0.4,0,0,0.4,600,560)">
                        <g>
                            <rect x="0" y="0" width="100" height="100"/>
                        </g>
                    </g>
                    <g transform="matrix(0.4,0,0,0.4,680,560)">
                        <g>
                            <rect x="0" y="0" width="100" height="100"/>
                        </g>
                    </g>
                    <g transform="matrix(0.4,0,0,0.4,720,560)">
                        <g>
                            <rect x="0" y="0" width="100" height="100"/>
                        </g>
                    </g>
                    <g transform="matrix(0.4,0,0,0.4,840,560)">
                        <g>
                            <rect x="0" y="0" width="100" height="100"/>
                        </g>
                    </g>
                    <g transform="matrix(0.4,0,0,0.4,880,560)">
                        <g>
                            <rect x="0" y="0" width="100" height="100"/>
                        </g>
                    </g>
                    <g transform="matrix(0.4,0,0,0.4,960,560)">
                        <g>
                            <rect x="0" y="0" width="100" height="100"/>
                        </g>
                    </g>
                    <g transform="matrix(0.4,0,0,0.4,80,600)">
                        <g>
                            <rect x="0" y="0" width="100" height="100"/>
                        </g>
                    </g>
                    <g transform="matrix(0.4,0,0,0.4,160,600)">
                        <g>
                            <rect x="0" y="0" width="100" height="100"/>
                        </g>
                    </g>
                    <g transform="matrix(0.4,0,0,0.4,200,600)">
                        <g>
                            <rect x="0" y="0" width="100" height="100"/>
                        </g>
                    </g>
                    <g transform="matrix(0.4,0,0,0.4,320,600)">
                        <g>
                            <rect x="0" y="0" width="100" height="100"/>
                        </g>
                    </g>
                    <g transform="matrix(0.4,0,0,0.4,400,600)">
                        <g>
                            <rect x="0" y="0" width="100" height="100"/>
                        </g>
                    </g>
                    <g transform="matrix(0.4,0,0,0.4,440,600)">
                        <g>
                            <rect x="0" y="0" width="100" height="100"/>
                        </g>
                    </g>
                    <g transform="matrix(0.4,0,0,0.4,480,600)">
                        <g>
                            <rect x="0" y="0" width="100" height="100"/>
                        </g>
                    </g>
                    <g transform="matrix(0.4,0,0,0.4,560,600)">
                        <g>
                            <rect x="0" y="0" width="100" height="100"/>
                        </g>
                    </g>
                    <g transform="matrix(0.4,0,0,0.4,600,600)">
                        <g>
                            <rect x="0" y="0" width="100" height="100"/>
                        </g>
                    </g>
                    <g transform="matrix(0.4,0,0,0.4,680,600)">
                        <g>
                            <rect x="0" y="0" width="100" height="100"/>
                        </g>
                    </g>
                    <g transform="matrix(0.4,0,0,0.4,760,600)">
                        <g>
                            <rect x="0" y="0" width="100" height="100"/>
                        </g>
                    </g>
                    <g transform="matrix(0.4,0,0,0.4,800,600)">
                        <g>
                            <rect x="0" y="0" width="100" height="100"/>
                        </g>
                    </g>
                    <g transform="matrix(0.4,0,0,0.4,840,600)">
                        <g>
                            <rect x="0" y="0" width="100" height="100"/>
                        </g>
                    </g>
                    <g transform="matrix(0.4,0,0,0.4,0,640)">
                        <g>
                            <rect x="0" y="0" width="100" height="100"/>
                        </g>
                    </g>
                    <g transform="matrix(0.4,0,0,0.4,40,640)">
                        <g>
                            <rect x="0" y="0" width="100" height="100"/>
                        </g>
                    </g>
                    <g transform="matrix(0.4,0,0,0.4,80,640)">
                        <g>
                            <rect x="0" y="0" width="100" height="100"/>
                        </g>
                    </g>
                    <g transform="matrix(0.4,0,0,0.4,120,640)">
                        <g>
                            <rect x="0" y="0" width="100" height="100"/>
                        </g>
                    </g>
                    <g transform="matrix(0.4,0,0,0.4,200,640)">
                        <g>
                            <rect x="0" y="0" width="100" height="100"/>
                        </g>
                    </g>
                    <g transform="matrix(0.4,0,0,0.4,240,640)">
                        <g>
                            <rect x="0" y="0" width="100" height="100"/>
                        </g>
                    </g>
                    <g transform="matrix(0.4,0,0,0.4,280,640)">
                        <g>
                            <rect x="0" y="0" width="100" height="100"/>
                        </g>
                    </g>
                    <g transform="matrix(0.4,0,0,0.4,400,640)">
                        <g>
                            <rect x="0" y="0" width="100" height="100"/>
                        </g>
                    </g>
                    <g transform="matrix(0.4,0,0,0.4,520,640)">
                        <g>
                            <rect x="0" y="0" width="100" height="100"/>
                        </g>
                    </g>
                    <g transform="matrix(0.4,0,0,0.4,560,640)">
                        <g>
                            <rect x="0" y="0" width="100" height="100"/>
                        </g>
                    </g>
                    <g transform="matrix(0.4,0,0,0.4,600,640)">
                        <g>
                            <rect x="0" y="0" width="100" height="100"/>
                        </g>
                    </g>
                    <g transform="matrix(0.4,0,0,0.4,640,640)">
                        <g>
                            <rect x="0" y="0" width="100" height="100"/>
                        </g>
                    </g>
                    <g transform="matrix(0.4,0,0,0.4,680,640)">
                        <g>
                            <rect x="0" y="0" width="100" height="100"/>
                        </g>
                    </g>
                    <g transform="matrix(0.4,0,0,0.4,720,640)">
                        <g>
                            <rect x="0" y="0" width="100" height="100"/>
                        </g>
                    </g>
                    <g transform="matrix(0.4,0,0,0.4,760,640)">
                        <g>
                            <rect x="0" y="0" width="100" height="100"/>
                        </g>
                    </g>
                    <g transform="matrix(0.4,0,0,0.4,800,640)">
                        <g>
                            <rect x="0" y="0" width="100" height="100"/>
                        </g>
                    </g>
                    <g transform="matrix(0.4,0,0,0.4,920,640)">
                        <g>
                            <rect x="0" y="0" width="100" height="100"/>
                        </g>
                    </g>
                    <g transform="matrix(0.4,0,0,0.4,320,680)">
                        <g>
                            <rect x="0" y="0" width="100" height="100"/>
                        </g>
                    </g>
                    <g transform="matrix(0.4,0,0,0.4,400,680)">
                        <g>
                            <rect x="0" y="0" width="100" height="100"/>
                        </g>
                    </g>
                    <g transform="matrix(0.4,0,0,0.4,520,680)">
                        <g>
                            <rect x="0" y="0" width="100" height="100"/>
                        </g>
                    </g>
                    <g transform="matrix(0.4,0,0,0.4,640,680)">
                        <g>
                            <rect x="0" y="0" width="100" height="100"/>
                        </g>
                    </g>
                    <g transform="matrix(0.4,0,0,0.4,800,680)">
                        <g>
                            <rect x="0" y="0" width="100" height="100"/>
                        </g>
                    </g>
                    <g transform="matrix(0.4,0,0,0.4,960,680)">
                        <g>
                            <rect x="0" y="0" width="100" height="100"/>
                        </g>
                    </g>
                    <g transform="matrix(0.4,0,0,0.4,320,720)">
                        <g>
                            <rect x="0" y="0" width="100" height="100"/>
                        </g>
                    </g>
                    <g transform="matrix(0.4,0,0,0.4,360,720)">
                        <g>
                            <rect x="0" y="0" width="100" height="100"/>
                        </g>
                    </g>
                    <g transform="matrix(0.4,0,0,0.4,440,720)">
                        <g>
                            <rect x="0" y="0" width="100" height="100"/>
                        </g>
                    </g>
                    <g transform="matrix(0.4,0,0,0.4,640,720)">
                        <g>
                            <rect x="0" y="0" width="100" height="100"/>
                        </g>
                    </g>
                    <g transform="matrix(0.4,0,0,0.4,720,720)">
                        <g>
                            <rect x="0" y="0" width="100" height="100"/>
                        </g>
                    </g>
                    <g transform="matrix(0.4,0,0,0.4,800,720)">
                        <g>
                            <rect x="0" y="0" width="100" height="100"/>
                        </g>
                    </g>
                    <g transform="matrix(0.4,0,0,0.4,960,720)">
                        <g>
                            <rect x="0" y="0" width="100" height="100"/>
                        </g>
                    </g>
                    <g transform="matrix(0.4,0,0,0.4,520,760)">
                        <g>
                            <rect x="0" y="0" width="100" height="100"/>
                        </g>
                    </g>
                    <g transform="matrix(0.4,0,0,0.4,600,760)">
                        <g>
                            <rect x="0" y="0" width="100" height="100"/>
                        </g>
                    </g>
                    <g transform="matrix(0.4,0,0,0.4,640,760)">
                        <g>
                            <rect x="0" y="0" width="100" height="100"/>
                        </g>
                    </g>
                    <g transform="matrix(0.4,0,0,0.4,800,760)">
                        <g>
                            <rect x="0" y="0" width="100" height="100"/>
                        </g>
                    </g>
                    <g transform="matrix(0.4,0,0,0.4,920,760)">
                        <g>
                            <rect x="0" y="0" width="100" height="100"/>
                        </g>
                    </g>
                    <g transform="matrix(0.4,0,0,0.4,400,800)">
                        <g>
                            <rect x="0" y="0" width="100" height="100"/>
                        </g>
                    </g>
                    <g transform="matrix(0.4,0,0,0.4,440,800)">
                        <g>
                            <rect x="0" y="0" width="100" height="100"/>
                        </g>
                    </g>
                    <g transform="matrix(0.4,0,0,0.4,480,800)">
                        <g>
                            <rect x="0" y="0" width="100" height="100"/>
                        </g>
                    </g>
                    <g transform="matrix(0.4,0,0,0.4,520,800)">
                        <g>
                            <rect x="0" y="0" width="100" height="100"/>
                        </g>
                    </g>
                    <g transform="matrix(0.4,0,0,0.4,600,800)">
                        <g>
                            <rect x="0" y="0" width="100" height="100"/>
                        </g>
                    </g>
                    <g transform="matrix(0.4,0,0,0.4,640,800)">
                        <g>
                            <rect x="0" y="0" width="100" height="100"/>
                        </g>
                    </g>
                    <g transform="matrix(0.4,0,0,0.4,680,800)">
                        <g>
                            <rect x="0" y="0" width="100" height="100"/>
                        </g>
                    </g>
                    <g transform="matrix(0.4,0,0,0.4,720,800)">
                        <g>
                            <rect x="0" y="0" width="100" height="100"/>
                        </g>
                    </g>
                    <g transform="matrix(0.4,0,0,0.4,760,800)">
                        <g>
                            <rect x="0" y="0" width="100" height="100"/>
                        </g>
                    </g>
                    <g transform="matrix(0.4,0,0,0.4,800,800)">
                        <g>
                            <rect x="0" y="0" width="100" height="100"/>
                        </g>
                    </g>
                    <g transform="matrix(0.4,0,0,0.4,960,800)">
                        <g>
                            <rect x="0" y="0" width="100" height="100"/>
                        </g>
                    </g>
                    <g transform="matrix(0.4,0,0,0.4,400,840)">
                        <g>
                            <rect x="0" y="0" width="100" height="100"/>
                        </g>
                    </g>
                    <g transform="matrix(0.4,0,0,0.4,480,840)">
                        <g>
                            <rect x="0" y="0" width="100" height="100"/>
                        </g>
                    </g>
                    <g transform="matrix(0.4,0,0,0.4,640,840)">
                        <g>
                            <rect x="0" y="0" width="100" height="100"/>
                        </g>
                    </g>
                    <g transform="matrix(0.4,0,0,0.4,680,840)">
                        <g>
                            <rect x="0" y="0" width="100" height="100"/>
                        </g>
                    </g>
                    <g transform="matrix(0.4,0,0,0.4,800,840)">
                        <g>
                            <rect x="0" y="0" width="100" height="100"/>
                        </g>
                    </g>
                    <g transform="matrix(0.4,0,0,0.4,880,840)">
                        <g>
                            <rect x="0" y="0" width="100" height="100"/>
                        </g>
                    </g>
                    <g transform="matrix(0.4,0,0,0.4,920,840)">
                        <g>
                            <rect x="0" y="0" width="100" height="100"/>
                        </g>
                    </g>
                    <g transform="matrix(0.4,0,0,0.4,320,880)">
                        <g>
                            <rect x="0" y="0" width="100" height="100"/>
                        </g>
                    </g>
                    <g transform="matrix(0.4,0,0,0.4,400,880)">
                        <g>
                            <rect x="0" y="0" width="100" height="100"/>
                        </g>
                    </g>
                    <g transform="matrix(0.4,0,0,0.4,480,880)">
                        <g>
                            <rect x="0" y="0" width="100" height="100"/>
                        </g>
                    </g>
                    <g transform="matrix(0.4,0,0,0.4,520,880)">
                        <g>
                            <rect x="0" y="0" width="100" height="100"/>
                        </g>
                    </g>
                    <g transform="matrix(0.4,0,0,0.4,560,880)">
                        <g>
                            <rect x="0" y="0" width="100" height="100"/>
                        </g>
                    </g>
                    <g transform="matrix(0.4,0,0,0.4,600,880)">
                        <g>
                            <rect x="0" y="0" width="100" height="100"/>
                        </g>
                    </g>
                    <g transform="matrix(0.4,0,0,0.4,640,880)">
                        <g>
                            <rect x="0" y="0" width="100" height="100"/>
                        </g>
                    </g>
                    <g transform="matrix(0.4,0,0,0.4,760,880)">
                        <g>
                            <rect x="0" y="0" width="100" height="100"/>
                        </g>
                    </g>
                    <g transform="matrix(0.4,0,0,0.4,800,880)">
                        <g>
                            <rect x="0" y="0" width="100" height="100"/>
                        </g>
                    </g>
                    <g transform="matrix(0.4,0,0,0.4,840,880)">
                        <g>
                            <rect x="0" y="0" width="100" height="100"/>
                        </g>
                    </g>
                    <g transform="matrix(0.4,0,0,0.4,920,880)">
                        <g>
                            <rect x="0" y="0" width="100" height="100"/>
                        </g>
                    </g>
                    <g transform="matrix(0.4,0,0,0.4,960,880)">
                        <g>
                            <rect x="0" y="0" width="100" height="100"/>
                        </g>
                    </g>
                    <g transform="matrix(0.4,0,0,0.4,440,920)">
                        <g>
                            <rect x="0" y="0" width="100" height="100"/>
                        </g>
                    </g>
                    <g transform="matrix(0.4,0,0,0.4,480,920)">
                        <g>
                            <rect x="0" y="0" width="100" height="100"/>
                        </g>
                    </g>
                    <g transform="matrix(0.4,0,0,0.4,560,920)">
                        <g>
                            <rect x="0" y="0" width="100" height="100"/>
                        </g>
                    </g>
                    <g transform="matrix(0.4,0,0,0.4,600,920)">
                        <g>
                            <rect x="0" y="0" width="100" height="100"/>
                        </g>
                    </g>
                    <g transform="matrix(0.4,0,0,0.4,640,920)">
                        <g>
                            <rect x="0" y="0" width="100" height="100"/>
                        </g>
                    </g>
                    <g transform="matrix(0.4,0,0,0.4,760,920)">
                        <g>
                            <rect x="0" y="0" width="100" height="100"/>
                        </g>
                    </g>
                    <g transform="matrix(0.4,0,0,0.4,800,920)">
                        <g>
                            <rect x="0" y="0" width="100" height="100"/>
                        </g>
                    </g>
                    <g transform="matrix(0.4,0,0,0.4,320,960)">
                        <g>
                            <rect x="0" y="0" width="100" height="100"/>
                        </g>
                    </g>
                    <g transform="matrix(0.4,0,0,0.4,520,960)">
                        <g>
                            <rect x="0" y="0" width="100" height="100"/>
                        </g>
                    </g>
                    <g transform="matrix(0.4,0,0,0.4,560,960)">
                        <g>
                            <rect x="0" y="0" width="100" height="100"/>
                        </g>
                    </g>
                    <g transform="matrix(0.4,0,0,0.4,640,960)">
                        <g>
                            <rect x="0" y="0" width="100" height="100"/>
                        </g>
                    </g>
                    <g transform="matrix(0.4,0,0,0.4,720,960)">
                        <g>
                            <rect x="0" y="0" width="100" height="100"/>
                        </g>
                    </g>
                    <g transform="matrix(0.4,0,0,0.4,840,960)">
                        <g>
                            <rect x="0" y="0" width="100" height="100"/>
                        </g>
                    </g>
                    <g transform="matrix(0.4,0,0,0.4,960,960)">
                        <g>
                            <rect x="0" y="0" width="100" height="100"/>
                        </g>
                    </g>
                    <g transform="matrix(2.8,0,0,2.8,0,0)">
                        <g>
                            <g>
                                <rect x="15" y="15" width="70" height="70" style="fill:none;"/>
                                <path d="M100,0L0,0L0,100L100,100L100,0ZM85,85L15,85L15,15L85,15L85,85Z" style="fill-rule:nonzero;"/>
                            </g>
                        </g>
                    </g>
                    <g transform="matrix(2.8,0,0,2.8,720,0)">
                        <g>
                            <g>
                                <rect x="15" y="15" width="70" height="70" style="fill:none;"/>
                                <path d="M100,0L0,0L0,100L100,100L100,0ZM85,85L15,85L15,15L85,15L85,85Z" style="fill-rule:nonzero;"/>
                            </g>
                        </g>
                    </g>
                    <g transform="matrix(2.8,0,0,2.8,0,720)">
                        <g>
                            <g>
                                <rect x="15" y="15" width="70" height="70" style="fill:none;"/>
                                <path d="M100,0L0,0L0,100L100,100L100,0ZM85,85L15,85L15,15L85,15L85,85Z" style="fill-rule:nonzero;"/>
                            </g>
                        </g>
                    </g>
                    <g transform="matrix(1.2,0,0,1.2,80,80)">
                        <g>
                            <rect x="0" y="0" width="100" height="100"/>
                        </g>
                    </g>
                    <g transform="matrix(1.2,0,0,1.2,800,80)">
                        <g>
                            <rect x="0" y="0" width="100" height="100"/>
                        </g>
                    </g>
                    <g transform="matrix(1.2,0,0,1.2,80,800)">
                        <g>
                            <rect x="0" y="0" width="100" height="100"/>
                        </g>
                    </g>
                </g>
            </g>
        </g>
        <g transform="matrix(4.46657,0,0,1.07346,-385.979,12.0769)">
            <g transform="matrix(5.31073,0,0,24,103.348,17.4545)">
                <path d="M0.036,-0.6L0.036,-0.727L0.633,-0.727L0.633,-0.6L0.41,-0.6L0.41,-0L0.258,-0L0.258,-0.6L0.036,-0.6Z" style="fill-rule:nonzero;"/>
            </g>
            <g transform="matrix(5.31073,0,0,24,106.897,17.4545)">
                <path d="M0.063,-0L0.063,-0.727L0.35,-0.727C0.405,-0.727 0.452,-0.718 0.491,-0.698C0.53,-0.678 0.56,-0.651 0.58,-0.615C0.601,-0.58 0.611,-0.538 0.611,-0.49C0.611,-0.441 0.6,-0.4 0.58,-0.365C0.559,-0.331 0.529,-0.304 0.489,-0.286C0.45,-0.267 0.402,-0.258 0.346,-0.258L0.154,-0.258L0.154,-0.381L0.321,-0.381C0.351,-0.381 0.375,-0.385 0.395,-0.393C0.414,-0.402 0.428,-0.414 0.438,-0.43C0.448,-0.446 0.452,-0.466 0.452,-0.49C0.452,-0.514 0.448,-0.534 0.438,-0.551C0.428,-0.567 0.414,-0.58 0.394,-0.589C0.375,-0.597 0.35,-0.602 0.321,-0.602L0.217,-0.602L0.217,-0L0.063,-0ZM0.456,-0.331L0.637,-0L0.467,-0L0.29,-0.331L0.456,-0.331Z" style="fill-rule:nonzero;"/>
            </g>
            <g transform="matrix(5.31073,0,0,24,110.382,17.4545)">
                <path d="M0.189,-0L0.024,-0L0.275,-0.727L0.473,-0.727L0.724,-0L0.559,-0L0.377,-0.561L0.371,-0.561L0.189,-0ZM0.178,-0.286L0.567,-0.286L0.567,-0.166L0.178,-0.166L0.178,-0.286Z" style="fill-rule:nonzero;"/>
            </g>
            <g transform="matrix(5.31073,0,0,24,114.354,17.4545)">
                <path d="M0.338,-0.253L0.468,-0.253L0.534,-0.168L0.599,-0.093L0.721,0.06L0.577,0.06L0.493,-0.043L0.45,-0.104L0.338,-0.253ZM0.732,-0.364C0.732,-0.284 0.717,-0.217 0.687,-0.161C0.657,-0.106 0.616,-0.063 0.564,-0.034C0.513,-0.005 0.455,0.01 0.391,0.01C0.326,0.01 0.268,-0.005 0.217,-0.034C0.166,-0.063 0.125,-0.106 0.095,-0.162C0.065,-0.217 0.05,-0.285 0.05,-0.364C0.05,-0.443 0.065,-0.51 0.095,-0.566C0.125,-0.622 0.166,-0.664 0.217,-0.693C0.268,-0.723 0.326,-0.737 0.391,-0.737C0.455,-0.737 0.513,-0.723 0.564,-0.693C0.616,-0.664 0.657,-0.622 0.687,-0.566C0.717,-0.51 0.732,-0.443 0.732,-0.364ZM0.576,-0.364C0.576,-0.415 0.568,-0.458 0.553,-0.494C0.537,-0.529 0.516,-0.556 0.488,-0.574C0.461,-0.592 0.428,-0.601 0.391,-0.601C0.354,-0.601 0.321,-0.592 0.294,-0.574C0.266,-0.556 0.244,-0.529 0.229,-0.494C0.214,-0.458 0.206,-0.415 0.206,-0.364C0.206,-0.312 0.214,-0.269 0.229,-0.234C0.244,-0.198 0.266,-0.172 0.294,-0.153C0.321,-0.135 0.354,-0.126 0.391,-0.126C0.428,-0.126 0.461,-0.135 0.488,-0.153C0.516,-0.172 0.537,-0.198 0.553,-0.234C0.568,-0.269 0.576,-0.312 0.576,-0.364Z" style="fill-rule:nonzero;"/>
            </g>
            <g transform="matrix(5.31073,0,0,24,118.511,17.4545)">
                <path d="M0.063,-0L0.063,-0.727L0.35,-0.727C0.405,-0.727 0.452,-0.718 0.491,-0.698C0.53,-0.678 0.56,-0.651 0.58,-0.615C0.601,-0.58 0.611,-0.538 0.611,-0.49C0.611,-0.441 0.6,-0.4 0.58,-0.365C0.559,-0.331 0.529,-0.304 0.489,-0.286C0.45,-0.267 0.402,-0.258 0.346,-0.258L0.154,-0.258L0.154,-0.381L0.321,-0.381C0.351,-0.381 0.375,-0.385 0.395,-0.393C0.414,-0.402 0.428,-0.414 0.438,-0.43C0.448,-0.446 0.452,-0.466 0.452,-0.49C0.452,-0.514 0.448,-0.534 0.438,-0.551C0.428,-0.567 0.414,-0.58 0.394,-0.589C0.375,-0.597 0.35,-0.602 0.321,-0.602L0.217,-0.602L0.217,-0L0.063,-0ZM0.456,-0.331L0.637,-0L0.467,-0L0.29,-0.331L0.456,-0.331Z" style="fill-rule:nonzero;"/>
            </g>
            <g transform="matrix(5.31073,0,0,24,121.996,17.4545)">
                <path d="M0.684,-0.491L0.573,-0.491C0.569,-0.514 0.561,-0.535 0.549,-0.553C0.538,-0.571 0.524,-0.587 0.507,-0.599C0.49,-0.612 0.471,-0.621 0.45,-0.627C0.43,-0.634 0.408,-0.637 0.385,-0.637C0.343,-0.637 0.305,-0.627 0.272,-0.605C0.239,-0.584 0.213,-0.554 0.194,-0.513C0.175,-0.472 0.165,-0.422 0.165,-0.364C0.165,-0.304 0.175,-0.254 0.194,-0.214C0.213,-0.173 0.239,-0.142 0.272,-0.121C0.306,-0.101 0.343,-0.09 0.384,-0.09C0.407,-0.09 0.429,-0.093 0.45,-0.1C0.47,-0.106 0.489,-0.115 0.506,-0.127C0.523,-0.14 0.537,-0.155 0.549,-0.173C0.561,-0.191 0.569,-0.211 0.573,-0.234L0.684,-0.234C0.678,-0.198 0.667,-0.165 0.65,-0.135C0.633,-0.106 0.611,-0.08 0.585,-0.058C0.558,-0.036 0.528,-0.02 0.494,-0.008C0.46,0.004 0.424,0.01 0.384,0.01C0.321,0.01 0.264,-0.005 0.215,-0.035C0.166,-0.065 0.127,-0.108 0.099,-0.164C0.071,-0.22 0.056,-0.286 0.056,-0.364C0.056,-0.441 0.071,-0.508 0.099,-0.564C0.127,-0.619 0.166,-0.662 0.216,-0.692C0.265,-0.722 0.321,-0.737 0.384,-0.737C0.422,-0.737 0.458,-0.732 0.492,-0.721C0.525,-0.71 0.555,-0.694 0.582,-0.672C0.609,-0.651 0.631,-0.625 0.648,-0.595C0.666,-0.565 0.678,-0.53 0.684,-0.491Z" style="fill-rule:nonzero;"/>
            </g>
            <g transform="matrix(5.31073,0,0,24,125.901,17.4545)">
                <path d="M0.712,-0.364C0.712,-0.286 0.697,-0.219 0.669,-0.164C0.641,-0.108 0.602,-0.065 0.552,-0.035C0.503,-0.005 0.447,0.01 0.384,0.01C0.321,0.01 0.265,-0.005 0.216,-0.035C0.166,-0.065 0.127,-0.108 0.099,-0.164C0.071,-0.22 0.056,-0.286 0.056,-0.364C0.056,-0.441 0.071,-0.508 0.099,-0.564C0.127,-0.619 0.166,-0.662 0.216,-0.692C0.265,-0.722 0.321,-0.737 0.384,-0.737C0.447,-0.737 0.503,-0.722 0.552,-0.692C0.602,-0.662 0.641,-0.619 0.669,-0.564C0.697,-0.508 0.712,-0.441 0.712,-0.364ZM0.603,-0.364C0.603,-0.423 0.593,-0.473 0.574,-0.513C0.555,-0.554 0.529,-0.585 0.496,-0.606C0.463,-0.627 0.426,-0.637 0.384,-0.637C0.342,-0.637 0.305,-0.627 0.272,-0.606C0.239,-0.585 0.213,-0.554 0.194,-0.513C0.175,-0.473 0.165,-0.423 0.165,-0.364C0.165,-0.304 0.175,-0.255 0.194,-0.214C0.213,-0.173 0.239,-0.143 0.272,-0.122C0.305,-0.101 0.342,-0.09 0.384,-0.09C0.426,-0.09 0.463,-0.101 0.496,-0.122C0.529,-0.143 0.555,-0.173 0.574,-0.214C0.593,-0.255 0.603,-0.304 0.603,-0.364Z" style="fill-rule:nonzero;"/>
            </g>
            <g transform="matrix(5.31073,0,0,24,129.981,17.4545)">
                <path d="M0.315,-0L0.08,-0L0.08,-0.727L0.323,-0.727C0.394,-0.727 0.455,-0.713 0.506,-0.684C0.558,-0.655 0.597,-0.613 0.624,-0.559C0.651,-0.505 0.665,-0.44 0.665,-0.365C0.665,-0.289 0.651,-0.224 0.624,-0.169C0.596,-0.115 0.556,-0.073 0.504,-0.044C0.452,-0.015 0.389,-0 0.315,-0ZM0.19,-0.096L0.309,-0.096C0.365,-0.096 0.411,-0.106 0.447,-0.127C0.484,-0.148 0.512,-0.179 0.53,-0.219C0.548,-0.258 0.557,-0.307 0.557,-0.365C0.557,-0.422 0.548,-0.47 0.53,-0.51C0.512,-0.55 0.485,-0.58 0.449,-0.6C0.413,-0.621 0.369,-0.631 0.316,-0.631L0.19,-0.631L0.19,-0.096Z" style="fill-rule:nonzero;"/>
            </g>
            <g transform="matrix(5.31073,0,0,24,133.813,17.4545)">
                <path d="M0.08,-0L0.08,-0.727L0.536,-0.727L0.536,-0.633L0.19,-0.633L0.19,-0.411L0.512,-0.411L0.512,-0.317L0.19,-0.317L0.19,-0.094L0.54,-0.094L0.54,-0L0.08,-0Z" style="fill-rule:nonzero;"/>
            </g>
        </g>
        <g transform="matrix(1.58349,0,0,1.0697,-32.0827,-1.90245)">
            <g transform="matrix(7.46381,0,0,12,71.5359,53.2625)">
                <path d="M0.061,-0L0.061,-0.073L0.444,-0.633L0.058,-0.633L0.058,-0.727L0.578,-0.727L0.578,-0.654L0.195,-0.094L0.581,-0.094L0.581,-0L0.061,-0Z" style="fill-rule:nonzero;"/>
            </g>
            <g transform="matrix(7.46381,0,0,12,76.3041,53.2625)">
                <path d="M0.306,0.011C0.253,0.011 0.206,-0.001 0.168,-0.024C0.129,-0.047 0.099,-0.079 0.078,-0.121C0.057,-0.163 0.047,-0.213 0.047,-0.269C0.047,-0.325 0.057,-0.374 0.078,-0.417C0.099,-0.46 0.129,-0.493 0.166,-0.517C0.204,-0.541 0.248,-0.553 0.299,-0.553C0.33,-0.553 0.36,-0.547 0.388,-0.537C0.417,-0.527 0.443,-0.511 0.466,-0.489C0.489,-0.468 0.507,-0.439 0.521,-0.405C0.534,-0.37 0.54,-0.328 0.54,-0.278L0.54,-0.241L0.107,-0.241L0.107,-0.32L0.436,-0.32C0.436,-0.348 0.431,-0.373 0.419,-0.395C0.408,-0.416 0.392,-0.433 0.372,-0.446C0.351,-0.459 0.327,-0.465 0.3,-0.465C0.27,-0.465 0.244,-0.458 0.222,-0.443C0.2,-0.428 0.183,-0.41 0.171,-0.386C0.159,-0.363 0.153,-0.338 0.153,-0.31L0.153,-0.248C0.153,-0.212 0.159,-0.181 0.172,-0.155C0.185,-0.13 0.203,-0.11 0.226,-0.097C0.249,-0.083 0.277,-0.077 0.308,-0.077C0.328,-0.077 0.346,-0.08 0.363,-0.085C0.379,-0.091 0.393,-0.1 0.406,-0.112C0.418,-0.123 0.427,-0.137 0.433,-0.154L0.534,-0.136C0.526,-0.107 0.511,-0.081 0.491,-0.059C0.47,-0.037 0.444,-0.019 0.413,-0.007C0.382,0.005 0.346,0.011 0.306,0.011Z" style="fill-rule:nonzero;"/>
            </g>
            <g transform="matrix(7.46381,0,0,12,80.688,53.2625)">
                <path d="M0.071,-0L0.071,-0.545L0.174,-0.545L0.174,-0.459L0.18,-0.459C0.19,-0.488 0.207,-0.511 0.232,-0.528C0.258,-0.545 0.286,-0.554 0.318,-0.554C0.325,-0.554 0.333,-0.553 0.342,-0.553C0.351,-0.552 0.358,-0.552 0.363,-0.551L0.363,-0.45C0.359,-0.451 0.351,-0.452 0.341,-0.454C0.33,-0.455 0.319,-0.456 0.308,-0.456C0.283,-0.456 0.26,-0.451 0.241,-0.44C0.221,-0.43 0.206,-0.415 0.195,-0.396C0.183,-0.378 0.178,-0.357 0.178,-0.333L0.178,-0L0.071,-0Z" style="fill-rule:nonzero;"/>
            </g>
            <g transform="matrix(7.46381,0,0,12,83.4074,53.2625)">
                <path d="M0.301,0.011C0.25,0.011 0.205,-0.001 0.167,-0.024C0.129,-0.048 0.1,-0.08 0.078,-0.123C0.057,-0.165 0.047,-0.214 0.047,-0.27C0.047,-0.327 0.057,-0.376 0.078,-0.419C0.1,-0.461 0.129,-0.494 0.167,-0.517C0.205,-0.541 0.25,-0.553 0.301,-0.553C0.352,-0.553 0.397,-0.541 0.435,-0.517C0.473,-0.494 0.503,-0.461 0.524,-0.419C0.545,-0.376 0.555,-0.327 0.555,-0.27C0.555,-0.214 0.545,-0.165 0.524,-0.123C0.503,-0.08 0.473,-0.048 0.435,-0.024C0.397,-0.001 0.352,0.011 0.301,0.011ZM0.301,-0.078C0.335,-0.078 0.362,-0.087 0.384,-0.104C0.406,-0.122 0.422,-0.145 0.432,-0.174C0.443,-0.203 0.448,-0.236 0.448,-0.271C0.448,-0.305 0.443,-0.337 0.432,-0.367C0.422,-0.396 0.406,-0.419 0.384,-0.437C0.362,-0.455 0.335,-0.464 0.301,-0.464C0.268,-0.464 0.24,-0.455 0.219,-0.437C0.197,-0.419 0.18,-0.396 0.17,-0.367C0.159,-0.337 0.154,-0.305 0.154,-0.271C0.154,-0.236 0.159,-0.203 0.17,-0.174C0.18,-0.145 0.197,-0.122 0.219,-0.104C0.24,-0.087 0.268,-0.078 0.301,-0.078Z" style="fill-rule:nonzero;"/>
            </g>
            <g transform="matrix(7.46381,0,0,12,87.9027,53.2625)">
                <rect x="0.07" y="-0.353" width="0.322" height="0.092" style="fill-rule:nonzero;"/>
            </g>
            <g transform="matrix(7.46381,0,0,12,91.3589,53.2625)">
                <path d="M0.684,-0.491L0.573,-0.491C0.569,-0.514 0.561,-0.535 0.549,-0.553C0.538,-0.571 0.524,-0.587 0.507,-0.599C0.49,-0.612 0.471,-0.621 0.45,-0.627C0.43,-0.634 0.408,-0.637 0.385,-0.637C0.343,-0.637 0.305,-0.627 0.272,-0.605C0.239,-0.584 0.213,-0.554 0.194,-0.513C0.175,-0.472 0.165,-0.422 0.165,-0.364C0.165,-0.304 0.175,-0.254 0.194,-0.214C0.213,-0.173 0.239,-0.142 0.272,-0.121C0.306,-0.101 0.343,-0.09 0.384,-0.09C0.407,-0.09 0.429,-0.093 0.45,-0.1C0.47,-0.106 0.489,-0.115 0.506,-0.127C0.523,-0.14 0.537,-0.155 0.549,-0.173C0.561,-0.191 0.569,-0.211 0.573,-0.234L0.684,-0.234C0.678,-0.198 0.667,-0.165 0.65,-0.135C0.633,-0.106 0.611,-0.08 0.585,-0.058C0.558,-0.036 0.528,-0.02 0.494,-0.008C0.46,0.004 0.424,0.01 0.384,0.01C0.321,0.01 0.264,-0.005 0.215,-0.035C0.166,-0.065 0.127,-0.108 0.099,-0.164C0.071,-0.22 0.056,-0.286 0.056,-0.364C0.056,-0.441 0.071,-0.508 0.099,-0.564C0.127,-0.619 0.166,-0.662 0.216,-0.692C0.265,-0.722 0.321,-0.737 0.384,-0.737C0.422,-0.737 0.458,-0.732 0.492,-0.721C0.525,-0.71 0.555,-0.694 0.582,-0.672C0.609,-0.651 0.631,-0.625 0.648,-0.595C0.666,-0.565 0.678,-0.53 0.684,-0.491Z" style="fill-rule:nonzero;"/>
            </g>
            <g transform="matrix(7.46381,0,0,12,96.8481,53.2625)">
                <path d="M0.301,0.011C0.25,0.011 0.205,-0.001 0.167,-0.024C0.129,-0.048 0.1,-0.08 0.078,-0.123C0.057,-0.165 0.047,-0.214 0.047,-0.27C0.047,-0.327 0.057,-0.376 0.078,-0.419C0.1,-0.461 0.129,-0.494 0.167,-0.517C0.205,-0.541 0.25,-0.553 0.301,-0.553C0.352,-0.553 0.397,-0.541 0.435,-0.517C0.473,-0.494 0.503,-0.461 0.524,-0.419C0.545,-0.376 0.555,-0.327 0.555,-0.27C0.555,-0.214 0.545,-0.165 0.524,-0.123C0.503,-0.08 0.473,-0.048 0.435,-0.024C0.397,-0.001 0.352,0.011 0.301,0.011ZM0.301,-0.078C0.335,-0.078 0.362,-0.087 0.384,-0.104C0.406,-0.122 0.422,-0.145 0.432,-0.174C0.443,-0.203 0.448,-0.236 0.448,-0.271C0.448,-0.305 0.443,-0.337 0.432,-0.367C0.422,-0.396 0.406,-0.419 0.384,-0.437C0.362,-0.455 0.335,-0.464 0.301,-0.464C0.268,-0.464 0.24,-0.455 0.219,-0.437C0.197,-0.419 0.18,-0.396 0.17,-0.367C0.159,-0.337 0.154,-0.305 0.154,-0.271C0.154,-0.236 0.159,-0.203 0.17,-0.174C0.18,-0.145 0.197,-0.122 0.219,-0.104C0.24,-0.087 0.268,-0.078 0.301,-0.078Z" style="fill-rule:nonzero;"/>
            </g>
            <g transform="matrix(7.46381,0,0,12,101.343,53.2625)">
                <path d="M0.178,-0.324L0.178,-0L0.071,-0L0.071,-0.545L0.173,-0.545L0.173,-0.457L0.18,-0.457C0.193,-0.486 0.212,-0.509 0.239,-0.526C0.266,-0.544 0.3,-0.553 0.341,-0.553C0.378,-0.553 0.411,-0.545 0.439,-0.529C0.467,-0.514 0.488,-0.491 0.504,-0.46C0.519,-0.43 0.527,-0.392 0.527,-0.347L0.527,-0L0.42,-0L0.42,-0.334C0.42,-0.374 0.41,-0.405 0.39,-0.427C0.369,-0.449 0.341,-0.461 0.305,-0.461C0.28,-0.461 0.258,-0.455 0.239,-0.445C0.22,-0.434 0.205,-0.418 0.194,-0.398C0.183,-0.377 0.178,-0.353 0.178,-0.324Z" style="fill-rule:nonzero;"/>
            </g>
            <g transform="matrix(7.46381,0,0,12,105.802,53.2625)">
                <path d="M0.331,-0.545L0.331,-0.46L0.023,-0.46L0.023,-0.545L0.331,-0.545ZM0.107,-0L0.107,-0.609C0.107,-0.643 0.115,-0.671 0.13,-0.694C0.145,-0.716 0.164,-0.733 0.189,-0.744C0.214,-0.756 0.24,-0.761 0.269,-0.761C0.29,-0.761 0.309,-0.76 0.324,-0.756C0.339,-0.753 0.35,-0.75 0.358,-0.747L0.333,-0.661C0.328,-0.662 0.321,-0.664 0.314,-0.666C0.306,-0.668 0.296,-0.669 0.285,-0.669C0.259,-0.669 0.241,-0.663 0.23,-0.65C0.219,-0.637 0.213,-0.619 0.213,-0.594L0.213,-0L0.107,-0Z" style="fill-rule:nonzero;"/>
            </g>
            <g transform="matrix(7.46381,0,0,12,108.555,53.2625)">
                <path d="M0.071,-0L0.071,-0.545L0.178,-0.545L0.178,-0L0.071,-0ZM0.125,-0.63C0.107,-0.63 0.091,-0.636 0.078,-0.648C0.064,-0.661 0.058,-0.676 0.058,-0.693C0.058,-0.71 0.064,-0.725 0.078,-0.738C0.091,-0.75 0.107,-0.756 0.125,-0.756C0.143,-0.756 0.159,-0.75 0.172,-0.738C0.186,-0.725 0.192,-0.71 0.192,-0.693C0.192,-0.676 0.186,-0.661 0.172,-0.648C0.159,-0.636 0.143,-0.63 0.125,-0.63Z" style="fill-rule:nonzero;"/>
            </g>
            <g transform="matrix(7.46381,0,0,12,110.413,53.2625)">
                <path d="M0.3,0.215C0.257,0.215 0.22,0.209 0.188,0.198C0.157,0.186 0.132,0.171 0.112,0.153C0.093,0.134 0.078,0.114 0.068,0.092L0.159,0.055C0.166,0.065 0.174,0.075 0.185,0.087C0.196,0.099 0.211,0.109 0.229,0.117C0.248,0.125 0.272,0.129 0.301,0.129C0.341,0.129 0.375,0.12 0.401,0.1C0.427,0.081 0.44,0.05 0.44,0.008L0.44,-0.099L0.434,-0.099C0.427,-0.088 0.418,-0.075 0.406,-0.061C0.394,-0.047 0.378,-0.034 0.357,-0.024C0.336,-0.013 0.309,-0.008 0.276,-0.008C0.232,-0.008 0.194,-0.018 0.159,-0.039C0.125,-0.059 0.098,-0.089 0.078,-0.128C0.058,-0.168 0.048,-0.217 0.048,-0.275C0.048,-0.333 0.057,-0.383 0.077,-0.424C0.097,-0.465 0.124,-0.497 0.159,-0.519C0.193,-0.541 0.232,-0.553 0.276,-0.553C0.31,-0.553 0.337,-0.547 0.358,-0.536C0.379,-0.524 0.395,-0.511 0.407,-0.496C0.419,-0.482 0.428,-0.468 0.434,-0.457L0.442,-0.457L0.442,-0.545L0.546,-0.545L0.546,0.012C0.546,0.058 0.535,0.097 0.513,0.127C0.492,0.157 0.462,0.179 0.425,0.193C0.388,0.208 0.346,0.215 0.3,0.215ZM0.299,-0.096C0.33,-0.096 0.355,-0.103 0.377,-0.118C0.398,-0.132 0.414,-0.153 0.425,-0.18C0.436,-0.206 0.441,-0.239 0.441,-0.276C0.441,-0.313 0.436,-0.345 0.425,-0.373C0.414,-0.401 0.398,-0.423 0.377,-0.439C0.356,-0.454 0.33,-0.462 0.299,-0.462C0.267,-0.462 0.24,-0.454 0.219,-0.438C0.198,-0.421 0.182,-0.399 0.171,-0.371C0.16,-0.343 0.155,-0.311 0.155,-0.276C0.155,-0.241 0.16,-0.209 0.171,-0.182C0.182,-0.155 0.198,-0.134 0.22,-0.119C0.241,-0.104 0.268,-0.096 0.299,-0.096Z" style="fill-rule:nonzero;"/>
            </g>
            <g transform="matrix(7.46381,0,0,12,116.997,53.2625)">
                <path d="M0.667,-0.727L0.667,-0L0.566,-0L0.196,-0.533L0.19,-0.533L0.19,-0L0.08,-0L0.08,-0.727L0.181,-0.727L0.551,-0.193L0.558,-0.193L0.558,-0.727L0.667,-0.727Z" style="fill-rule:nonzero;"/>
            </g>
            <g transform="matrix(7.46381,0,0,12,122.571,53.2625)">
                <path d="M0.301,0.011C0.25,0.011 0.205,-0.001 0.167,-0.024C0.129,-0.048 0.1,-0.08 0.078,-0.123C0.057,-0.165 0.047,-0.214 0.047,-0.27C0.047,-0.327 0.057,-0.376 0.078,-0.419C0.1,-0.461 0.129,-0.494 0.167,-0.517C0.205,-0.541 0.25,-0.553 0.301,-0.553C0.352,-0.553 0.397,-0.541 0.435,-0.517C0.473,-0.494 0.503,-0.461 0.524,-0.419C0.545,-0.376 0.555,-0.327 0.555,-0.27C0.555,-0.214 0.545,-0.165 0.524,-0.123C0.503,-0.08 0.473,-0.048 0.435,-0.024C0.397,-0.001 0.352,0.011 0.301,0.011ZM0.301,-0.078C0.335,-0.078 0.362,-0.087 0.384,-0.104C0.406,-0.122 0.422,-0.145 0.432,-0.174C0.443,-0.203 0.448,-0.236 0.448,-0.271C0.448,-0.305 0.443,-0.337 0.432,-0.367C0.422,-0.396 0.406,-0.419 0.384,-0.437C0.362,-0.455 0.335,-0.464 0.301,-0.464C0.268,-0.464 0.24,-0.455 0.219,-0.437C0.197,-0.419 0.18,-0.396 0.17,-0.367C0.159,-0.337 0.154,-0.305 0.154,-0.271C0.154,-0.236 0.159,-0.203 0.17,-0.174C0.18,-0.145 0.197,-0.122 0.219,-0.104C0.24,-0.087 0.268,-0.078 0.301,-0.078Z" style="fill-rule:nonzero;"/>
            </g>
            <g transform="matrix(7.46381,0,0,12,127.066,53.2625)">
                <path d="M0.326,-0.545L0.326,-0.46L0.028,-0.46L0.028,-0.545L0.326,-0.545ZM0.108,-0.676L0.214,-0.676L0.214,-0.16C0.214,-0.14 0.217,-0.124 0.223,-0.114C0.23,-0.104 0.238,-0.097 0.247,-0.093C0.257,-0.089 0.268,-0.087 0.279,-0.087C0.288,-0.087 0.295,-0.088 0.302,-0.089C0.308,-0.09 0.313,-0.091 0.317,-0.092L0.336,-0.004C0.33,-0.002 0.321,0.001 0.31,0.003C0.298,0.006 0.284,0.007 0.267,0.007C0.239,0.008 0.213,0.003 0.189,-0.008C0.165,-0.018 0.145,-0.034 0.13,-0.056C0.115,-0.078 0.108,-0.105 0.108,-0.138L0.108,-0.676Z" style="fill-rule:nonzero;"/>
            </g>
            <g transform="matrix(7.46381,0,0,12,129.842,53.2625)">
                <path d="M0.071,-0L0.071,-0.545L0.178,-0.545L0.178,-0L0.071,-0ZM0.125,-0.63C0.107,-0.63 0.091,-0.636 0.078,-0.648C0.064,-0.661 0.058,-0.676 0.058,-0.693C0.058,-0.71 0.064,-0.725 0.078,-0.738C0.091,-0.75 0.107,-0.756 0.125,-0.756C0.143,-0.756 0.159,-0.75 0.172,-0.738C0.186,-0.725 0.192,-0.71 0.192,-0.693C0.192,-0.676 0.186,-0.661 0.172,-0.648C0.159,-0.636 0.143,-0.63 0.125,-0.63Z" style="fill-rule:nonzero;"/>
            </g>
            <g transform="matrix(7.46381,0,0,12,131.7,53.2625)">
                <path d="M0.331,-0.545L0.331,-0.46L0.023,-0.46L0.023,-0.545L0.331,-0.545ZM0.107,-0L0.107,-0.609C0.107,-0.643 0.115,-0.671 0.13,-0.694C0.145,-0.716 0.164,-0.733 0.189,-0.744C0.214,-0.756 0.24,-0.761 0.269,-0.761C0.29,-0.761 0.309,-0.76 0.324,-0.756C0.339,-0.753 0.35,-0.75 0.358,-0.747L0.333,-0.661C0.328,-0.662 0.321,-0.664 0.314,-0.666C0.306,-0.668 0.296,-0.669 0.285,-0.669C0.259,-0.669 0.241,-0.663 0.23,-0.65C0.219,-0.637 0.213,-0.619 0.213,-0.594L0.213,-0L0.107,-0Z" style="fill-rule:nonzero;"/>
            </g>
            <g transform="matrix(7.46381,0,0,12,134.453,53.2625)">
                <path d="M0.071,-0L0.071,-0.545L0.178,-0.545L0.178,-0L0.071,-0ZM0.125,-0.63C0.107,-0.63 0.091,-0.636 0.078,-0.648C0.064,-0.661 0.058,-0.676 0.058,-0.693C0.058,-0.71 0.064,-0.725 0.078,-0.738C0.091,-0.75 0.107,-0.756 0.125,-0.756C0.143,-0.756 0.159,-0.75 0.172,-0.738C0.186,-0.725 0.192,-0.71 0.192,-0.693C0.192,-0.676 0.186,-0.661 0.172,-0.648C0.159,-0.636 0.143,-0.63 0.125,-0.63Z" style="fill-rule:nonzero;"/>
            </g>
            <g transform="matrix(7.46381,0,0,12,136.311,53.2625)">
                <path d="M0.301,0.011C0.248,0.011 0.203,-0.001 0.165,-0.025C0.127,-0.049 0.098,-0.082 0.077,-0.125C0.057,-0.167 0.047,-0.216 0.047,-0.27C0.047,-0.326 0.057,-0.375 0.078,-0.417C0.099,-0.46 0.128,-0.493 0.166,-0.517C0.204,-0.541 0.249,-0.553 0.3,-0.553C0.342,-0.553 0.378,-0.545 0.411,-0.53C0.443,-0.514 0.47,-0.493 0.49,-0.466C0.51,-0.438 0.521,-0.406 0.525,-0.369L0.422,-0.369C0.416,-0.395 0.403,-0.417 0.383,-0.435C0.363,-0.454 0.336,-0.463 0.302,-0.463C0.272,-0.463 0.246,-0.455 0.224,-0.44C0.202,-0.424 0.185,-0.402 0.173,-0.374C0.16,-0.345 0.154,-0.312 0.154,-0.273C0.154,-0.233 0.16,-0.199 0.172,-0.17C0.184,-0.141 0.201,-0.118 0.224,-0.103C0.246,-0.087 0.272,-0.079 0.302,-0.079C0.322,-0.079 0.34,-0.083 0.357,-0.09C0.373,-0.097 0.387,-0.108 0.398,-0.122C0.41,-0.136 0.417,-0.153 0.422,-0.173L0.525,-0.173C0.521,-0.137 0.51,-0.106 0.491,-0.078C0.472,-0.05 0.446,-0.029 0.414,-0.013C0.382,0.003 0.344,0.011 0.301,0.011Z" style="fill-rule:nonzero;"/>
            </g>
            <g transform="matrix(7.46381,0,0,12,140.55,53.2625)">
                <path d="M0.23,0.012C0.196,0.012 0.164,0.006 0.136,-0.007C0.108,-0.02 0.086,-0.039 0.07,-0.064C0.054,-0.088 0.046,-0.118 0.046,-0.154C0.046,-0.185 0.052,-0.21 0.064,-0.23C0.075,-0.25 0.091,-0.266 0.112,-0.277C0.132,-0.289 0.154,-0.298 0.179,-0.304C0.204,-0.31 0.229,-0.314 0.255,-0.317C0.288,-0.321 0.314,-0.324 0.335,-0.327C0.355,-0.329 0.37,-0.333 0.379,-0.339C0.388,-0.344 0.393,-0.354 0.393,-0.366L0.393,-0.369C0.393,-0.4 0.384,-0.424 0.367,-0.441C0.349,-0.458 0.323,-0.467 0.289,-0.467C0.253,-0.467 0.225,-0.459 0.205,-0.443C0.184,-0.427 0.17,-0.41 0.162,-0.391L0.063,-0.413C0.074,-0.446 0.092,-0.473 0.115,-0.494C0.137,-0.514 0.164,-0.529 0.194,-0.539C0.223,-0.548 0.255,-0.553 0.288,-0.553C0.309,-0.553 0.333,-0.55 0.357,-0.545C0.382,-0.54 0.405,-0.531 0.426,-0.517C0.447,-0.504 0.465,-0.484 0.479,-0.459C0.492,-0.434 0.499,-0.402 0.499,-0.362L0.499,-0L0.396,-0L0.396,-0.075L0.391,-0.075C0.384,-0.061 0.374,-0.047 0.36,-0.034C0.347,-0.021 0.329,-0.01 0.308,-0.001C0.286,0.008 0.26,0.012 0.23,0.012ZM0.253,-0.073C0.283,-0.073 0.308,-0.079 0.329,-0.091C0.35,-0.102 0.366,-0.117 0.377,-0.136C0.388,-0.155 0.393,-0.175 0.393,-0.197L0.393,-0.267C0.389,-0.263 0.382,-0.26 0.371,-0.257C0.36,-0.253 0.348,-0.251 0.335,-0.248C0.321,-0.246 0.307,-0.244 0.294,-0.242C0.281,-0.241 0.27,-0.239 0.262,-0.238C0.241,-0.235 0.222,-0.231 0.205,-0.225C0.189,-0.219 0.175,-0.21 0.165,-0.198C0.155,-0.187 0.15,-0.172 0.15,-0.153C0.15,-0.126 0.16,-0.107 0.179,-0.093C0.198,-0.08 0.223,-0.073 0.253,-0.073Z" style="fill-rule:nonzero;"/>
            </g>
            <g transform="matrix(7.46381,0,0,12,144.798,53.2625)">
                <path d="M0.326,-0.545L0.326,-0.46L0.028,-0.46L0.028,-0.545L0.326,-0.545ZM0.108,-0.676L0.214,-0.676L0.214,-0.16C0.214,-0.14 0.217,-0.124 0.223,-0.114C0.23,-0.104 0.238,-0.097 0.247,-0.093C0.257,-0.089 0.268,-0.087 0.279,-0.087C0.288,-0.087 0.295,-0.088 0.302,-0.089C0.308,-0.09 0.313,-0.091 0.317,-0.092L0.336,-0.004C0.33,-0.002 0.321,0.001 0.31,0.003C0.298,0.006 0.284,0.007 0.267,0.007C0.239,0.008 0.213,0.003 0.189,-0.008C0.165,-0.018 0.145,-0.034 0.13,-0.056C0.115,-0.078 0.108,-0.105 0.108,-0.138L0.108,-0.676Z" style="fill-rule:nonzero;"/>
            </g>
            <g transform="matrix(7.46381,0,0,12,147.573,53.2625)">
                <path d="M0.071,-0L0.071,-0.545L0.178,-0.545L0.178,-0L0.071,-0ZM0.125,-0.63C0.107,-0.63 0.091,-0.636 0.078,-0.648C0.064,-0.661 0.058,-0.676 0.058,-0.693C0.058,-0.71 0.064,-0.725 0.078,-0.738C0.091,-0.75 0.107,-0.756 0.125,-0.756C0.143,-0.756 0.159,-0.75 0.172,-0.738C0.186,-0.725 0.192,-0.71 0.192,-0.693C0.192,-0.676 0.186,-0.661 0.172,-0.648C0.159,-0.636 0.143,-0.63 0.125,-0.63Z" style="fill-rule:nonzero;"/>
            </g>
            <g transform="matrix(7.46381,0,0,12,149.431,53.2625)">
                <path d="M0.301,0.011C0.25,0.011 0.205,-0.001 0.167,-0.024C0.129,-0.048 0.1,-0.08 0.078,-0.123C0.057,-0.165 0.047,-0.214 0.047,-0.27C0.047,-0.327 0.057,-0.376 0.078,-0.419C0.1,-0.461 0.129,-0.494 0.167,-0.517C0.205,-0.541 0.25,-0.553 0.301,-0.553C0.352,-0.553 0.397,-0.541 0.435,-0.517C0.473,-0.494 0.503,-0.461 0.524,-0.419C0.545,-0.376 0.555,-0.327 0.555,-0.27C0.555,-0.214 0.545,-0.165 0.524,-0.123C0.503,-0.08 0.473,-0.048 0.435,-0.024C0.397,-0.001 0.352,0.011 0.301,0.011ZM0.301,-0.078C0.335,-0.078 0.362,-0.087 0.384,-0.104C0.406,-0.122 0.422,-0.145 0.432,-0.174C0.443,-0.203 0.448,-0.236 0.448,-0.271C0.448,-0.305 0.443,-0.337 0.432,-0.367C0.422,-0.396 0.406,-0.419 0.384,-0.437C0.362,-0.455 0.335,-0.464 0.301,-0.464C0.268,-0.464 0.24,-0.455 0.219,-0.437C0.197,-0.419 0.18,-0.396 0.17,-0.367C0.159,-0.337 0.154,-0.305 0.154,-0.271C0.154,-0.236 0.159,-0.203 0.17,-0.174C0.18,-0.145 0.197,-0.122 0.219,-0.104C0.24,-0.087 0.268,-0.078 0.301,-0.078Z" style="fill-rule:nonzero;"/>
            </g>
            <g transform="matrix(7.46381,0,0,12,153.927,53.2625)">
                <path d="M0.178,-0.324L0.178,-0L0.071,-0L0.071,-0.545L0.173,-0.545L0.173,-0.457L0.18,-0.457C0.193,-0.486 0.212,-0.509 0.239,-0.526C0.266,-0.544 0.3,-0.553 0.341,-0.553C0.378,-0.553 0.411,-0.545 0.439,-0.529C0.467,-0.514 0.488,-0.491 0.504,-0.46C0.519,-0.43 0.527,-0.392 0.527,-0.347L0.527,-0L0.42,-0L0.42,-0.334C0.42,-0.374 0.41,-0.405 0.39,-0.427C0.369,-0.449 0.341,-0.461 0.305,-0.461C0.28,-0.461 0.258,-0.455 0.239,-0.445C0.22,-0.434 0.205,-0.418 0.194,-0.398C0.183,-0.377 0.178,-0.353 0.178,-0.324Z" style="fill-rule:nonzero;"/>
            </g>
            <g transform="matrix(7.46381,0,0,12,158.385,53.2625)">
                <path d="M0.48,-0.412L0.384,-0.395C0.38,-0.408 0.374,-0.419 0.365,-0.43C0.356,-0.442 0.345,-0.451 0.33,-0.458C0.315,-0.465 0.297,-0.468 0.275,-0.468C0.245,-0.468 0.22,-0.462 0.2,-0.448C0.179,-0.435 0.169,-0.418 0.169,-0.397C0.169,-0.378 0.176,-0.364 0.19,-0.353C0.203,-0.342 0.225,-0.332 0.255,-0.325L0.342,-0.305C0.392,-0.294 0.429,-0.276 0.454,-0.252C0.478,-0.228 0.491,-0.196 0.491,-0.158C0.491,-0.125 0.481,-0.096 0.463,-0.07C0.444,-0.045 0.418,-0.025 0.384,-0.011C0.351,0.004 0.312,0.011 0.268,0.011C0.207,0.011 0.157,-0.002 0.118,-0.028C0.08,-0.054 0.056,-0.092 0.047,-0.14L0.15,-0.156C0.156,-0.129 0.169,-0.109 0.189,-0.095C0.209,-0.081 0.235,-0.075 0.267,-0.075C0.302,-0.075 0.33,-0.082 0.35,-0.096C0.371,-0.111 0.382,-0.129 0.382,-0.15C0.382,-0.167 0.375,-0.181 0.363,-0.193C0.35,-0.204 0.331,-0.213 0.305,-0.219L0.212,-0.239C0.161,-0.251 0.124,-0.269 0.1,-0.295C0.075,-0.32 0.063,-0.352 0.063,-0.391C0.063,-0.423 0.072,-0.451 0.09,-0.475C0.108,-0.5 0.133,-0.519 0.165,-0.532C0.196,-0.546 0.233,-0.553 0.274,-0.553C0.333,-0.553 0.379,-0.54 0.413,-0.514C0.447,-0.489 0.469,-0.455 0.48,-0.412Z" style="fill-rule:nonzero;"/>
            </g>
        </g>
    </g>
</svg>
